<?xml version="1.0" encoding="UTF-8"?>
<svg xmlns="http://www.w3.org/2000/svg" xmlns:xlink="http://www.w3.org/1999/xlink" width="800px" height="800px" viewBox="0 0 800 800" version="1.1">
<g id="surface1">
<path style=" stroke:none;fill-rule:nonzero;fill:rgb(0%,0%,0%);fill-opacity:1;" d="M 600.410156 260.121094 C 583.558594 260.121094 566.871094 262.25 551.003906 266.339844 C 537.257812 232.3125 513.863281 201.882812 484.089844 179.796875 C 449.40625 154.109375 408.34375 140.53125 365.480469 140.53125 C 292.679688 140.53125 225.441406 181.757812 190.265625 246.707031 C 177.015625 242.78125 162.945312 240.65625 149.855469 240.65625 C 67.238281 240.65625 0 308.058594 0 390.839844 C 0 473.621094 67.238281 541.023438 149.855469 541.023438 L 238.199219 541.023438 C 252.761719 608.589844 312.800781 659.46875 384.621094 659.46875 L 600.410156 659.46875 C 710.511719 659.46875 800 569.652344 800 459.386719 C 800 349.285156 710.511719 260.121094 600.410156 260.121094 Z M 234.765625 507.484375 L 149.691406 507.484375 C 85.234375 507.8125 32.71875 455.132812 32.71875 390.347656 C 32.71875 325.5625 85.234375 272.882812 149.855469 272.882812 C 163.4375 272.882812 178.8125 275.992188 192.230469 281.554688 C 200.410156 284.988281 209.734375 281.226562 213.496094 273.210938 C 240.980469 212.1875 300.859375 172.761719 365.644531 172.761719 C 432.882812 172.761719 494.558594 214.804688 520.082031 276.484375 C 479.671875 294.152344 445.808594 324.90625 424.703125 364.828125 C 411.941406 361.390625 398.691406 359.753906 384.621094 359.753906 C 344.703125 359.753906 307.074219 375.132812 278.773438 403.109375 C 250.632812 430.921875 235.09375 467.894531 234.765625 507.484375 Z M 600.410156 626.257812 L 384.621094 626.257812 C 320 626.257812 267.484375 573.578125 267.484375 508.792969 C 267.484375 444.828125 320 392.636719 384.621094 392.636719 C 400 392.636719 414.070312 395.09375 427.320312 400.328125 C 435.5 403.4375 444.664062 399.671875 448.261719 391.492188 C 474.273438 331.453125 533.988281 292.679688 600.410156 292.679688 C 692.515625 292.679688 767.28125 367.28125 767.28125 458.894531 C 767.28125 551.164062 692.351562 626.257812 600.410156 626.257812 Z M 600.410156 626.257812 "/>
</g>
</svg>
